<?xml version="1.0" encoding="utf-8"?>
<!-- Generator: Adobe Illustrator 21.0.2, SVG Export Plug-In . SVG Version: 6.00 Build 0)  -->
<svg version="1.1" id="Isolation_Mode" xmlns="http://www.w3.org/2000/svg" xmlns:xlink="http://www.w3.org/1999/xlink" x="0px"
	 y="0px" viewBox="0 0 111 70.7" style="enable-background:new 0 0 111 70.7;" xml:space="preserve">
<path d="M110.8,27.1c0-0.6-0.5-1.2-1.2-1.2l-9.3-0.1c-0.4,0.1-0.7,0.2-0.9,0.4c-0.3,0.2-0.4,0.6-0.4,0.9v5.6H38.3
	c0.5-1.2,0.5-2.5,0.4-3.7c-0.4-4.2-4-6.6-4-6.6c-2.6-1.8-5.8-2.8-10.5-3.3c-5.5-0.6-9.7-0.2-12.4,0.9V1.2c0-0.6-0.5-1.2-1.2-1.2H1.2
	C0.6,0,0,0.6,0,1.2v56.3c0,0.6,0.5,1.2,1.2,1.2h13.1v10.8c0,0.6,0.5,1.2,1.2,1.2h10.4c0.7,0,1.3-0.6,1.1-1.3V59c0-0.1,0-0.2-0.1-0.3
	h53.3v10.8c0,0.6,0.5,1.2,1.2,1.2h10.5c0.6,0,1.2-0.6,1-1.3V59c0-0.1,0-0.2-0.1-0.3h17c0.3,0,0.5-0.3,0.8-0.5
	c0.3-0.2,0.4-0.6,0.4-0.9L110.8,27.1z M11.8,35l0.4,0c0.1,0,0.3,0.1,0.4,0.1h6.6l16.1,0.2c0.2,0,0.4,0,0.6-0.1
	c0.1,0,0.1-0.1,0.2-0.1H99V46h-3h-0.1H11.8V35z M24,21.6c4.2,0.4,7.1,1.3,9.3,2.8c0,0,2.6,1.8,2.9,4.8c0.2,1.9-0.1,2.8-1.1,3.5h-7.6
	l-15-0.2l-0.1-10C13.7,21.8,16.9,20.9,24,21.6z M24.6,59v9.2h-7.9v-9.5h8C24.6,58.8,24.6,58.9,24.6,59z M90.5,59v9.2h-7.9v-9.5h8
	C90.5,58.8,90.5,58.9,90.5,59z M2.5,56.2V2.5h6.9v44.8c0,0.6,0.5,1.2,1.2,1.2h85.3H96h4.3c0.6,0,1.2-0.5,1.2-1.2V28.4l6.8,0.1
	l0.2,27.7H2.5z"/>
</svg>
