<?xml version="1.0" encoding="utf-8"?>
<!-- Generator: Adobe Illustrator 21.0.2, SVG Export Plug-In . SVG Version: 6.00 Build 0)  -->
<svg version="1.1" id="Layer_1" xmlns="http://www.w3.org/2000/svg" xmlns:xlink="http://www.w3.org/1999/xlink" x="0px" y="0px"
	 viewBox="0 0 41.2 73.8" style="enable-background:new 0 0 41.2 73.8;" xml:space="preserve">
<path d="M41,38.5C39.1,21.1,24.4,3,22.1,0.4V0.2H22c-0.1-0.1-0.1-0.1-0.1-0.2l-0.2,0.2h-2.1L19.4,0c0,0-0.1,0.1-0.1,0.2h-0.1v0.2
	C16.8,3,2.1,21.1,0.2,38.5C-0.9,48.1,2.4,54,5.3,57.3c3.5,3.9,8.6,6.3,13.8,6.6v9.9h3v-9.9c5.2-0.3,10.3-2.7,13.8-6.6
	C38.8,54,42.1,48.1,41,38.5z M7.7,55.1c-3.6-4-5.1-9.6-4.3-16.3c1.4-13.1,10.9-27,15.7-33.3v17.2l-3.3-3.4l-1.3,1.2l4.5,4.7v11.1
	L12.7,30l-1.2,1.2l7.6,7.6v10.6l-6.4-6.4l-1.2,1.2l7.6,7.6v8.7C14.8,60.3,10.6,58.4,7.7,55.1z M33.5,55.1c-2.9,3.2-7.1,5.2-11.4,5.5
	v-8.3l8-8.1L28.9,43l-6.8,6.9V39.2l8-8L28.9,30l-6.8,6.8V25l4.5-4.3l-1.2-1.3l-3.3,3.2v-17c4.8,6.3,14.3,20.2,15.7,33.3
	C38.5,45.5,37,51.1,33.5,55.1z"/>
</svg>
